<svg xmlns="http://www.w3.org/2000/svg" viewBox="0 0 64 64" width="64" height="64" role="img" aria-label="Seance"><defs><linearGradient id="g" x1="14" y1="4" x2="52" y2="60" gradientUnits="userSpaceOnUse"><stop offset="0" stop-color="#5CE9FF"/><stop offset=".55" stop-color="#49A8FF"/><stop offset="1" stop-color="#7E4FFF"/></linearGradient><mask id="c"><rect width="64" height="64" fill="#fff"/><path d="M 4.90 9.50 H 20.60 A 3.4 3.4 0 0 1 24.00 12.90 V 18.10 A 3.4 3.4 0 0 1 20.60 21.50 H 10.90 L 3.70 26.80 L 5.90 21.50 H 4.90 A 3.4 3.4 0 0 1 1.50 18.10 V 12.90 A 3.4 3.4 0 0 1 4.90 9.50 Z" fill="#000" stroke="#000" stroke-width="5" stroke-linejoin="round"/><path d="M 49.72 32.00 H 59.10 A 3.4 3.4 0 0 1 62.50 35.40 V 40.60 A 3.4 3.4 0 0 1 59.10 44.00 H 54.72 L 47.52 49.30 L 49.72 44.00 H 49.72 A 3.4 3.4 0 0 1 46.32 40.60 V 35.40 A 3.4 3.4 0 0 1 49.72 32.00 Z" fill="#000" stroke="#000" stroke-width="5" stroke-linejoin="round"/></mask></defs><path d="M 41.06 4.01 C 43.41 4.09 45.37 4.80 47.17 6.31 C 48.87 7.74 50.03 9.25 50.72 11.36 C 51.50 13.76 52.18 15.66 52.40 18.18 C 52.61 20.63 52.80 22.55 52.67 25.00 C 52.53 27.53 52.04 29.46 51.43 31.91 C 50.91 33.99 50.88 35.72 50.01 37.67 C 49.42 38.99 49.53 40.26 48.77 41.48 C 46.38 45.31 46.62 49.72 43.27 52.73 C 43.68 49.84 44.02 47.58 44.78 44.76 C 42.65 46.09 42.23 48.42 40.62 50.34 C 38.70 52.62 38.71 55.60 36.36 57.43 C 38.16 53.74 38.46 50.44 39.73 46.53 C 36.47 48.26 34.67 50.71 31.93 53.18 C 28.87 55.94 26.36 58.06 22.72 60.00 C 25.31 55.51 25.29 51.14 27.06 46.27 C 24.05 47.67 22.40 49.92 19.53 51.58 C 16.72 53.20 14.39 54.27 11.29 55.22 C 12.66 54.07 13.63 53.04 14.66 51.58 C 15.70 50.10 16.55 48.90 17.05 47.15 C 17.55 45.39 17.61 43.93 17.67 42.10 C 17.74 40.02 17.03 38.43 16.96 36.34 C 16.90 34.46 16.99 32.84 17.94 31.21 C 18.56 30.12 19.08 29.26 19.97 28.37 C 20.82 27.52 21.44 26.82 22.37 26.07 C 23.99 24.75 24.65 23.13 25.91 21.46 C 27.31 19.61 28.22 18.03 29.28 15.97 C 30.04 14.47 30.57 13.26 31.23 11.71 C 31.62 10.78 31.69 9.94 32.20 9.06 C 32.70 8.19 33.23 7.60 33.97 6.93 C 34.81 6.18 35.53 5.65 36.54 5.16 C 37.31 4.78 37.92 4.48 38.76 4.27 C 39.57 4.07 40.23 3.98 41.06 4.01 Z" fill="url(#g)" mask="url(#c)"/><g fill="#FFFFFF" fill-opacity=".88"><path d="M 36.90 18.27 C 37.98 17.04 39.27 15.74 40.38 14.74 C 40.76 14.36 40.97 13.84 40.97 13.30 C 40.97 12.76 40.75 12.24 40.37 11.86 C 39.99 11.48 39.47 11.27 38.93 11.27 C 38.39 11.27 37.87 11.49 37.49 11.87 C 37.11 12.25 36.90 12.77 36.90 13.31 C 36.99 14.80 36.99 16.63 36.90 18.27 Z"/><path d="M 48.68 17.74 C 48.61 16.05 48.65 14.16 48.77 12.63 C 48.78 12.12 48.59 11.63 48.24 11.26 C 47.89 10.89 47.41 10.67 46.90 10.65 C 46.39 10.63 45.89 10.81 45.51 11.15 C 45.13 11.49 44.91 11.97 44.87 12.48 C 44.84 12.99 45.01 13.49 45.34 13.87 C 46.41 14.97 47.65 16.40 48.68 17.74 Z"/></g><path d="M 4.90 9.50 H 20.60 A 3.4 3.4 0 0 1 24.00 12.90 V 18.10 A 3.4 3.4 0 0 1 20.60 21.50 H 10.90 L 3.70 26.80 L 5.90 21.50 H 4.90 A 3.4 3.4 0 0 1 1.50 18.10 V 12.90 A 3.4 3.4 0 0 1 4.90 9.50 Z" fill="none" stroke="#35E1FF" stroke-width="2.4" stroke-linejoin="round"/><path d="M 49.72 32.00 H 59.10 A 3.4 3.4 0 0 1 62.50 35.40 V 40.60 A 3.4 3.4 0 0 1 59.10 44.00 H 54.72 L 47.52 49.30 L 49.72 44.00 H 49.72 A 3.4 3.4 0 0 1 46.32 40.60 V 35.40 A 3.4 3.4 0 0 1 49.72 32.00 Z" fill="none" stroke="#7E4FFF" stroke-width="2.4" stroke-linejoin="round"/></svg>
