<svg xmlns="http://www.w3.org/2000/svg" viewBox="0 0 64 64" width="64" height="64" role="img" aria-label="Seance"><defs><linearGradient id="g" x1="14" y1="4" x2="52" y2="60" gradientUnits="userSpaceOnUse"><stop offset="0" stop-color="#5CE9FF"/><stop offset=".55" stop-color="#49A8FF"/><stop offset="1" stop-color="#7E4FFF"/></linearGradient><mask id="c"><rect width="64" height="64" fill="#fff"/><path d="M 4.9 9.5 H 16.1 A 3.4 3.4 0 0 1 19.5 12.9 V 18.1 A 3.4 3.4 0 0 1 16.1 21.5 H 11.5 L 4.2 26.8 L 6.6 21.5 H 4.9 A 3.4 3.4 0 0 1 1.5 18.1 V 12.9 A 3.4 3.4 0 0 1 4.9 9.5 Z" fill="#000" stroke="#000" stroke-width="5" stroke-linejoin="round"/><path d="M 47.9 32 H 59.1 A 3.4 3.4 0 0 1 62.5 35.4 V 40.6 A 3.4 3.4 0 0 1 59.1 44 H 54 L 46.7 49.3 L 49.1 44 H 47.9 A 3.4 3.4 0 0 1 44.5 40.6 V 35.4 A 3.4 3.4 0 0 1 47.9 32 Z" fill="#000" stroke="#000" stroke-width="5" stroke-linejoin="round"/></mask></defs><path d="M 26.88 16.72 C 27.14 10.43 30.82 5.09 36.85 4.13 C 43.14 3.17 48.21 7.54 49.79 13.84 C 50.84 18.56 51.36 22.93 51.27 27.65 C 51.19 33.95 50.57 38.84 49.53 42.34 C 47.83 49.14 47.86 46.16 44.19 54.40 C 45.60 48.78 34.90 42.25 40.34 44.79 C 33.33 41.52 38.51 49.23 35.45 57.20 C 36.45 50.86 25.43 43.59 31.95 45.84 C 23.25 42.84 29.55 51.03 24.78 60.00 C 27.06 52.07 12.62 41.43 20.59 45.31 C 14.18 42.19 19.11 50.60 12.72 54.75 C 16.24 50.97 14.29 39.99 14.47 44.96 C 15.16 41.46 15.86 37.27 17.70 34.30 C 19.36 31.32 20.94 28.70 22.51 26.60 C 24.26 23.80 26.01 20.31 26.88 16.72 Z" fill="url(#g)" mask="url(#c)"/><g fill="#FFFFFF" fill-opacity=".88"><path d="M 36.50 17.60 C 35.80 15.41 35.45 12.96 36.50 11.56 C 37.72 10.43 39.30 11.21 39.47 13.14 C 39.65 15.24 38.25 16.63 36.50 17.60 Z"/><path d="M 44.37 17.16 C 43.67 15.06 43.32 12.61 44.37 11.21 C 45.59 10.08 47.16 10.86 47.34 12.79 C 47.51 14.89 46.12 16.28 44.37 17.16 Z"/></g><path d="M 4.9 9.5 H 16.1 A 3.4 3.4 0 0 1 19.5 12.9 V 18.1 A 3.4 3.4 0 0 1 16.1 21.5 H 11.5 L 4.2 26.8 L 6.6 21.5 H 4.9 A 3.4 3.4 0 0 1 1.5 18.1 V 12.9 A 3.4 3.4 0 0 1 4.9 9.5 Z" fill="none" stroke="#35E1FF" stroke-width="2.4" stroke-linejoin="round"/><path d="M 47.9 32 H 59.1 A 3.4 3.4 0 0 1 62.5 35.4 V 40.6 A 3.4 3.4 0 0 1 59.1 44 H 54 L 46.7 49.3 L 49.1 44 H 47.9 A 3.4 3.4 0 0 1 44.5 40.6 V 35.4 A 3.4 3.4 0 0 1 47.9 32 Z" fill="none" stroke="#7E4FFF" stroke-width="2.4" stroke-linejoin="round"/></svg>
